<svg width="144" height="164" viewBox="0 0 144 164" fill="none" xmlns="http://www.w3.org/2000/svg">
<mask id="path-1-inside-1_5_5023" fill="white">
<path d="M14.7906 85.1843L14.9408 85.3329L32.4188 88.1294L32.4884 88.2091C33.331 100.811 42.1049 113.142 54.0732 118.228C57.7476 119.869 61.6894 120.876 65.906 121.242L66.0305 121.441L68.8037 138.589C68.8843 138.723 69.0748 138.847 69.2397 138.749L69.3899 138.589L72.218 121.321L72.2839 121.242C85.1241 120.394 97.7445 111.559 102.804 99.587C104.353 96.0371 105.361 92.2589 105.698 88.2091L105.888 88.0895L123.242 85.3329C123.377 85.2677 123.502 85.0648 123.407 84.9163L123.242 84.7569L105.778 81.9713L105.694 81.8916C104.837 69.195 95.9019 56.7159 83.798 51.7242C80.2079 50.1919 76.3723 49.1958 72.2766 48.848L72.1667 48.6596L69.3862 31.4967C69.3605 31.3735 69.2103 31.3482 69.1151 31.3083C68.9246 31.3228 68.7891 31.4568 68.7597 31.6597L65.9865 48.7792L65.906 48.848C53.161 49.6812 40.6871 58.3568 35.5474 70.1912C33.8842 73.8209 32.8694 77.7367 32.4884 81.8916L32.2979 82.0111L14.9408 84.7533C14.8199 84.833 14.6953 85.0213 14.7906 85.1843ZM93.7588 59.9253C93.092 60.3274 92.3997 60.6788 91.7183 61.0555C90.154 59.6029 88.5091 58.3532 86.7837 57.2918L86.7031 57.3715L85.9667 62.9536L81.7648 60.3564L86.5932 57.1832C82.4169 54.6004 77.834 53.0138 72.8444 52.4088L72.4891 50.1629C80.5962 50.9707 87.6959 54.1584 93.7624 59.8456V59.9253H93.7588ZM92.1505 79.7652L84.0325 78.4467L88.0732 71.5496L88.2637 71.3214C90.154 73.8897 91.4472 76.7007 92.1542 79.7688L92.1505 79.7652ZM88.9707 70.0391L90.3042 67.833C92.3301 70.3615 93.9346 73.0638 94.9714 75.9979C95.4586 77.4252 95.9348 78.9031 96.074 80.381L93.5976 79.9934C92.8503 76.3493 91.275 73.0529 88.9744 70.0427L88.9707 70.0391ZM83.3657 78.1786L83.2155 78.3271C81.2593 78.0047 79.2444 77.7367 77.3394 77.3563L92.9272 61.943L83.3657 78.175V78.1786ZM75.7788 70.3107L74.4453 62.2545C77.5336 62.9681 80.4423 64.2034 82.9847 66.1269L82.9444 66.1667L75.7788 70.3071V70.3107ZM74.2805 60.8563L74.2109 60.7874L73.8189 58.3387C78.5227 59.1067 82.7246 61.0954 86.5089 64.0693C85.8019 64.5258 85.0655 64.917 84.3475 65.3444H84.2376C81.2336 63.113 77.9146 61.6206 74.2805 60.8526V60.8563ZM104.324 81.6996C103.577 81.5656 102.789 81.4967 102.053 81.312C101.481 76.3638 99.9023 71.8032 97.239 67.757L94.0702 72.5168L91.4435 68.3329L97.0742 67.6338L97.1547 67.5541C96.0924 65.8588 94.8175 64.2324 93.3595 62.6856C93.6855 62.001 94.1617 61.3525 94.4878 60.6679H94.5684C97.6969 63.8955 100.023 67.4599 101.697 71.2779C103.097 74.5345 104.104 78.041 104.32 81.6996H104.324ZM94.4914 109.433C94.0995 108.773 93.7295 108.085 93.3631 107.415C94.8212 105.868 96.096 104.242 97.1584 102.532L97.0778 102.452L91.4472 101.724L94.0738 97.5693L97.283 102.344C99.8803 98.2141 101.485 93.6825 102.097 88.7488L104.368 88.3974C103.551 96.4102 100.342 103.43 94.5757 109.433H94.4951H94.4914ZM74.4453 107.846L75.7788 99.7899L82.7393 103.811L82.9847 104.014C80.3764 105.868 77.5336 107.147 74.4453 107.846ZM84.2779 104.698L86.5089 106.017C83.9519 108.02 81.2153 109.607 78.2406 110.628C76.8119 111.114 75.3026 111.584 73.8189 111.718L74.2109 109.27C77.8816 108.531 81.2299 106.969 84.2742 104.698H84.2779ZM75.8851 99.0074C76.2111 97.0731 76.4822 95.0808 76.8668 93.1971L92.4253 108.61L76.0499 99.1704L75.8851 99.0074ZM84.0068 91.6503L92.1542 90.3318C91.4325 93.4 90.1686 96.2617 88.238 98.7792L88.1977 98.7394L84.0105 91.6503H84.0068ZM93.5573 90.1724L93.6379 90.1036L96.0997 89.7123C95.2974 94.3635 93.3375 98.5764 90.2639 102.26C89.8573 101.547 89.4616 100.822 89.0147 100.134V100.014C91.2823 97.0405 92.7953 93.7622 93.5573 90.1724ZM72.4854 119.88C72.61 119.141 72.6906 118.358 72.8811 117.634C77.8853 117.083 82.4975 115.507 86.5932 112.874L81.7648 109.741L85.9924 107.147L86.6994 112.725L86.78 112.794C88.5055 111.747 90.154 110.48 91.7146 109.041C92.407 109.364 93.0627 109.835 93.7551 110.157V110.237C90.4764 113.33 86.8862 115.631 83.025 117.282C79.7316 118.666 76.1855 119.662 72.4818 119.88H72.4854ZM69.943 85.3727H118.465C118.496 85.3727 118.499 85.4178 118.469 85.4227L77.2185 92.0452L76.6763 92.085L69.943 85.3727ZM69.4265 36.2278C69.4265 36.1969 69.4714 36.1932 69.4764 36.2237L76.1745 77.005L76.2001 77.5556L69.4265 84.2135V36.2278ZM43.6948 60.6679C44.1014 61.3272 44.4568 62.001 44.8377 62.6856C43.3687 64.2324 42.1049 65.8588 41.0278 67.5541L41.1084 67.6338L46.75 68.3728L44.127 72.5168L40.9179 67.757C38.3059 71.8865 36.7013 76.4181 36.0896 81.3518L33.8182 81.6996C34.6352 73.6832 37.859 66.663 43.6105 60.6679H43.6911H43.6948ZM63.7555 62.2545L62.4221 70.2709L55.4433 66.2754L55.2125 66.087C57.8135 64.2324 60.6526 62.9536 63.7555 62.2545ZM53.923 65.3879C53.1903 64.9568 52.3441 64.5149 51.7176 64.0693C55.4689 61.041 59.6855 59.1211 64.3783 58.3387L63.9863 60.8128C60.301 61.5663 56.9673 63.1275 53.923 65.3843V65.3879ZM62.2975 71.0896C61.9715 73.0275 61.7004 75.0163 61.3157 76.8999L45.7719 61.4757L62.1327 70.9302L62.2975 71.0932V71.0896ZM54.1941 78.4467L46.0467 79.7652C46.75 76.697 48.0176 73.8353 49.9628 71.3178L54.1941 78.4467ZM44.6289 79.9101L44.5483 79.9898L42.0865 80.3774C42.8632 75.7262 44.8744 71.5713 47.8784 67.8294L49.1716 69.9558V70.0753C46.9112 73.0457 45.3909 76.3276 44.6253 79.9065L44.6289 79.9101ZM65.7118 50.1629C65.5762 50.9309 65.5103 51.7242 65.3161 52.4487C60.3083 53.0138 55.6997 54.5895 51.604 57.223L56.4214 60.3564L52.1902 62.9536L51.4832 57.3715L51.4026 57.2918C49.6881 58.3532 48.0432 59.6065 46.479 61.0555C45.7829 60.6788 45.1052 60.331 44.4384 59.9253V59.8456C50.505 54.1584 57.5937 50.9707 65.7118 50.1629ZM62.0264 93.0776L61.9861 92.5378L68.7597 85.8835V133.868C68.7597 133.899 68.7148 133.903 68.7098 133.873L62.0264 93.0776ZM46.0467 90.3354H46.1309L54.1538 91.654L50.113 98.5402L49.9225 98.7829C48.0469 96.2001 46.75 93.4036 46.0467 90.3354ZM49.2155 100.058L47.882 102.264C44.878 98.5257 42.8632 94.3708 42.0902 89.716C42.9474 89.7812 43.7351 90.0384 44.5923 90.1072C45.3506 93.7368 46.9295 97.0441 49.2155 100.058ZM54.9377 91.759C56.8977 92.0814 58.9382 92.3495 60.8431 92.7262L45.259 108.111L54.9414 91.7554L54.9377 91.759ZM53.923 104.698C56.9416 106.973 60.2607 108.476 63.9021 109.23L63.9863 109.31L64.3783 111.758C59.6599 110.99 55.4689 109.002 51.6883 106.017C52.41 105.531 53.1683 105.144 53.923 104.698ZM62.4221 99.7899L63.7555 107.846C60.6563 107.132 57.7586 105.883 55.2125 103.974L55.2528 103.934L62.4221 99.7935V99.7899ZM44.4384 110.157C45.1345 109.835 45.7719 109.364 46.479 109.041C48.0432 110.48 49.6881 111.747 51.4026 112.794L51.4832 112.725L52.2305 107.147L56.4214 109.741L51.604 112.914C55.7803 115.497 60.3632 117.083 65.3564 117.674L65.7081 119.92C57.59 119.123 50.5014 115.939 44.4348 110.237V110.157H44.4384ZM33.8182 88.3974C34.5949 88.517 35.3972 88.6003 36.1298 88.7886C36.7013 93.7368 38.2949 98.2974 40.9436 102.344L44.127 97.5693L46.75 101.764L41.1084 102.452L41.0278 102.532C42.1012 104.242 43.3687 105.868 44.8377 107.415C44.4568 108.085 44.1014 108.773 43.6948 109.433H43.6142C37.859 103.434 34.6352 96.4138 33.8219 88.3974H33.8182ZM19.7149 84.7134C19.684 84.7134 19.6804 84.6684 19.711 84.6635L60.964 78.0555L61.5062 78.0156L68.2542 84.7134H19.7149Z"/>
</mask>
<path d="M14.7906 85.1843L14.9408 85.3329L32.4188 88.1294L32.4884 88.2091C33.331 100.811 42.1049 113.142 54.0732 118.228C57.7476 119.869 61.6894 120.876 65.906 121.242L66.0305 121.441L68.8037 138.589C68.8843 138.723 69.0748 138.847 69.2397 138.749L69.3899 138.589L72.218 121.321L72.2839 121.242C85.1241 120.394 97.7445 111.559 102.804 99.587C104.353 96.0371 105.361 92.2589 105.698 88.2091L105.888 88.0895L123.242 85.3329C123.377 85.2677 123.502 85.0648 123.407 84.9163L123.242 84.7569L105.778 81.9713L105.694 81.8916C104.837 69.195 95.9019 56.7159 83.798 51.7242C80.2079 50.1919 76.3723 49.1958 72.2766 48.848L72.1667 48.6596L69.3862 31.4967C69.3605 31.3735 69.2103 31.3482 69.1151 31.3083C68.9246 31.3228 68.7891 31.4568 68.7597 31.6597L65.9865 48.7792L65.906 48.848C53.161 49.6812 40.6871 58.3568 35.5474 70.1912C33.8842 73.8209 32.8694 77.7367 32.4884 81.8916L32.2979 82.0111L14.9408 84.7533C14.8199 84.833 14.6953 85.0213 14.7906 85.1843ZM93.7588 59.9253C93.092 60.3274 92.3997 60.6788 91.7183 61.0555C90.154 59.6029 88.5091 58.3532 86.7837 57.2918L86.7031 57.3715L85.9667 62.9536L81.7648 60.3564L86.5932 57.1832C82.4169 54.6004 77.834 53.0138 72.8444 52.4088L72.4891 50.1629C80.5962 50.9707 87.6959 54.1584 93.7624 59.8456V59.9253H93.7588ZM92.1505 79.7652L84.0325 78.4467L88.0732 71.5496L88.2637 71.3214C90.154 73.8897 91.4472 76.7007 92.1542 79.7688L92.1505 79.7652ZM88.9707 70.0391L90.3042 67.833C92.3301 70.3615 93.9346 73.0638 94.9714 75.9979C95.4586 77.4252 95.9348 78.9031 96.074 80.381L93.5976 79.9934C92.8503 76.3493 91.275 73.0529 88.9744 70.0427L88.9707 70.0391ZM83.3657 78.1786L83.2155 78.3271C81.2593 78.0047 79.2444 77.7367 77.3394 77.3563L92.9272 61.943L83.3657 78.175V78.1786ZM75.7788 70.3107L74.4453 62.2545C77.5336 62.9681 80.4423 64.2034 82.9847 66.1269L82.9444 66.1667L75.7788 70.3071V70.3107ZM74.2805 60.8563L74.2109 60.7874L73.8189 58.3387C78.5227 59.1067 82.7246 61.0954 86.5089 64.0693C85.8019 64.5258 85.0655 64.917 84.3475 65.3444H84.2376C81.2336 63.113 77.9146 61.6206 74.2805 60.8526V60.8563ZM104.324 81.6996C103.577 81.5656 102.789 81.4967 102.053 81.312C101.481 76.3638 99.9023 71.8032 97.239 67.757L94.0702 72.5168L91.4435 68.3329L97.0742 67.6338L97.1547 67.5541C96.0924 65.8588 94.8175 64.2324 93.3595 62.6856C93.6855 62.001 94.1617 61.3525 94.4878 60.6679H94.5684C97.6969 63.8955 100.023 67.4599 101.697 71.2779C103.097 74.5345 104.104 78.041 104.32 81.6996H104.324ZM94.4914 109.433C94.0995 108.773 93.7295 108.085 93.3631 107.415C94.8212 105.868 96.096 104.242 97.1584 102.532L97.0778 102.452L91.4472 101.724L94.0738 97.5693L97.283 102.344C99.8803 98.2141 101.485 93.6825 102.097 88.7488L104.368 88.3974C103.551 96.4102 100.342 103.43 94.5757 109.433H94.4951H94.4914ZM74.4453 107.846L75.7788 99.7899L82.7393 103.811L82.9847 104.014C80.3764 105.868 77.5336 107.147 74.4453 107.846ZM84.2779 104.698L86.5089 106.017C83.9519 108.02 81.2153 109.607 78.2406 110.628C76.8119 111.114 75.3026 111.584 73.8189 111.718L74.2109 109.27C77.8816 108.531 81.2299 106.969 84.2742 104.698H84.2779ZM75.8851 99.0074C76.2111 97.0731 76.4822 95.0808 76.8668 93.1971L92.4253 108.61L76.0499 99.1704L75.8851 99.0074ZM84.0068 91.6503L92.1542 90.3318C91.4325 93.4 90.1686 96.2617 88.238 98.7792L88.1977 98.7394L84.0105 91.6503H84.0068ZM93.5573 90.1724L93.6379 90.1036L96.0997 89.7123C95.2974 94.3635 93.3375 98.5764 90.2639 102.26C89.8573 101.547 89.4616 100.822 89.0147 100.134V100.014C91.2823 97.0405 92.7953 93.7622 93.5573 90.1724ZM72.4854 119.88C72.61 119.141 72.6906 118.358 72.8811 117.634C77.8853 117.083 82.4975 115.507 86.5932 112.874L81.7648 109.741L85.9924 107.147L86.6994 112.725L86.78 112.794C88.5055 111.747 90.154 110.48 91.7146 109.041C92.407 109.364 93.0627 109.835 93.7551 110.157V110.237C90.4764 113.33 86.8862 115.631 83.025 117.282C79.7316 118.666 76.1855 119.662 72.4818 119.88H72.4854ZM69.943 85.3727H118.465C118.496 85.3727 118.499 85.4178 118.469 85.4227L77.2185 92.0452L76.6763 92.085L69.943 85.3727ZM69.4265 36.2278C69.4265 36.1969 69.4714 36.1932 69.4764 36.2237L76.1745 77.005L76.2001 77.5556L69.4265 84.2135V36.2278ZM43.6948 60.6679C44.1014 61.3272 44.4568 62.001 44.8377 62.6856C43.3687 64.2324 42.1049 65.8588 41.0278 67.5541L41.1084 67.6338L46.75 68.3728L44.127 72.5168L40.9179 67.757C38.3059 71.8865 36.7013 76.4181 36.0896 81.3518L33.8182 81.6996C34.6352 73.6832 37.859 66.663 43.6105 60.6679H43.6911H43.6948ZM63.7555 62.2545L62.4221 70.2709L55.4433 66.2754L55.2125 66.087C57.8135 64.2324 60.6526 62.9536 63.7555 62.2545ZM53.923 65.3879C53.1903 64.9568 52.3441 64.5149 51.7176 64.0693C55.4689 61.041 59.6855 59.1211 64.3783 58.3387L63.9863 60.8128C60.301 61.5663 56.9673 63.1275 53.923 65.3843V65.3879ZM62.2975 71.0896C61.9715 73.0275 61.7004 75.0163 61.3157 76.8999L45.7719 61.4757L62.1327 70.9302L62.2975 71.0932V71.0896ZM54.1941 78.4467L46.0467 79.7652C46.75 76.697 48.0176 73.8353 49.9628 71.3178L54.1941 78.4467ZM44.6289 79.9101L44.5483 79.9898L42.0865 80.3774C42.8632 75.7262 44.8744 71.5713 47.8784 67.8294L49.1716 69.9558V70.0753C46.9112 73.0457 45.3909 76.3276 44.6253 79.9065L44.6289 79.9101ZM65.7118 50.1629C65.5762 50.9309 65.5103 51.7242 65.3161 52.4487C60.3083 53.0138 55.6997 54.5895 51.604 57.223L56.4214 60.3564L52.1902 62.9536L51.4832 57.3715L51.4026 57.2918C49.6881 58.3532 48.0432 59.6065 46.479 61.0555C45.7829 60.6788 45.1052 60.331 44.4384 59.9253V59.8456C50.505 54.1584 57.5937 50.9707 65.7118 50.1629ZM62.0264 93.0776L61.9861 92.5378L68.7597 85.8835V133.868C68.7597 133.899 68.7148 133.903 68.7098 133.873L62.0264 93.0776ZM46.0467 90.3354H46.1309L54.1538 91.654L50.113 98.5402L49.9225 98.7829C48.0469 96.2001 46.75 93.4036 46.0467 90.3354ZM49.2155 100.058L47.882 102.264C44.878 98.5257 42.8632 94.3708 42.0902 89.716C42.9474 89.7812 43.7351 90.0384 44.5923 90.1072C45.3506 93.7368 46.9295 97.0441 49.2155 100.058ZM54.9377 91.759C56.8977 92.0814 58.9382 92.3495 60.8431 92.7262L45.259 108.111L54.9414 91.7554L54.9377 91.759ZM53.923 104.698C56.9416 106.973 60.2607 108.476 63.9021 109.23L63.9863 109.31L64.3783 111.758C59.6599 110.99 55.4689 109.002 51.6883 106.017C52.41 105.531 53.1683 105.144 53.923 104.698ZM62.4221 99.7899L63.7555 107.846C60.6563 107.132 57.7586 105.883 55.2125 103.974L55.2528 103.934L62.4221 99.7935V99.7899ZM44.4384 110.157C45.1345 109.835 45.7719 109.364 46.479 109.041C48.0432 110.48 49.6881 111.747 51.4026 112.794L51.4832 112.725L52.2305 107.147L56.4214 109.741L51.604 112.914C55.7803 115.497 60.3632 117.083 65.3564 117.674L65.7081 119.92C57.59 119.123 50.5014 115.939 44.4348 110.237V110.157H44.4384ZM33.8182 88.3974C34.5949 88.517 35.3972 88.6003 36.1298 88.7886C36.7013 93.7368 38.2949 98.2974 40.9436 102.344L44.127 97.5693L46.75 101.764L41.1084 102.452L41.0278 102.532C42.1012 104.242 43.3687 105.868 44.8377 107.415C44.4568 108.085 44.1014 108.773 43.6948 109.433H43.6142C37.859 103.434 34.6352 96.4138 33.8219 88.3974H33.8182ZM19.7149 84.7134C19.684 84.7134 19.6804 84.6684 19.711 84.6635L60.964 78.0555L61.5062 78.0156L68.2542 84.7134H19.7149Z" stroke="url(#paint0_linear_5_5023)" stroke-width="6.03242" mask="url(#path-1-inside-1_5_5023)"/>
<path d="M5.16724 95.5504C4.80443 95.3431 4.48826 95.1254 4.21874 94.8973C3.95959 94.6693 3.83001 94.4257 3.83001 94.1665C3.83001 93.6689 4.04252 93.4201 4.46753 93.4201C4.74741 93.4201 5.05839 93.5756 5.40048 93.8866C5.74256 94.1976 6.1261 94.4723 6.55111 94.7107C6.97612 94.9388 7.43741 95.1357 7.93499 95.3016C8.96123 95.6437 9.90973 95.8147 10.7805 95.8147C11.6512 95.8147 12.3198 95.7577 12.7863 95.6437C13.2632 95.5297 13.6623 95.3742 13.9836 95.1772C14.6678 94.7522 15.0099 94.208 15.0099 93.5445C15.0099 92.9329 14.7144 92.3162 14.1235 91.6942C13.626 91.1655 12.9211 90.5332 12.0089 89.7972L9.34996 87.7136C6.68587 85.6611 5.11541 83.7849 4.63857 82.0848C4.47271 81.494 4.38978 80.8357 4.38978 80.1101C4.38978 79.3845 4.55046 78.6692 4.8718 77.9643C5.20352 77.2594 5.69073 76.6426 6.33342 76.1139C7.71212 74.9633 9.58838 74.388 11.9622 74.388C13.1751 74.388 14.2635 74.5694 15.2275 74.9322C16.1916 75.2847 16.8498 75.6008 17.2023 75.8807C17.5547 76.1606 17.731 76.4146 17.731 76.6426C17.731 77.1195 17.534 77.3579 17.1401 77.3579C16.912 77.3579 16.6684 77.2439 16.4093 77.0158C16.1501 76.7877 15.8599 76.5908 15.5385 76.4249C15.2275 76.2487 14.8699 76.0932 14.4656 75.9585C13.5949 75.6682 12.7397 75.5231 11.9 75.5231C10.3555 75.5231 9.5832 76.031 9.5832 77.0469C9.5832 77.4719 9.72314 77.8658 10.003 78.2286C10.5006 78.861 11.4698 79.768 12.9107 80.9497C14.362 82.1211 15.523 83.1473 16.3937 84.0285C17.2748 84.9096 17.9435 85.7026 18.3996 86.4075C19.1252 87.5167 19.488 88.6725 19.488 89.8749C19.488 91.067 19.2755 92.0829 18.8505 92.9226C18.4358 93.7519 17.8502 94.4671 17.0934 95.0684C15.4971 96.333 13.5171 96.9654 11.1537 96.9654C8.79019 96.9654 6.79472 96.4937 5.16724 95.5504Z" fill="url(#paint1_linear_5_5023)"/>
<path d="M75.036 147.537L76.4198 147.6C78.4309 147.6 80.0894 146.936 81.3956 145.609C82.7224 144.272 83.417 142.541 83.4792 140.416C83.5932 137.14 82.0175 134.927 78.7522 133.776C77.529 133.341 75.9378 133.123 73.9786 133.123H72.6725V153.99H64.7424V131.988H70.6978C73.9112 131.988 75.8497 132.035 76.5131 132.128C77.1766 132.221 77.8659 132.341 78.5812 132.486C79.3068 132.631 80.0843 132.947 80.9135 133.434C81.7532 133.922 82.4633 134.502 83.0438 135.176C84.2152 136.544 84.7801 138.151 84.7386 139.996C84.6764 142.349 83.9871 144.308 82.6706 145.874C81.3334 147.449 79.4882 148.424 77.1351 148.797C76.4509 148.89 75.9119 148.937 75.518 148.937C74.585 148.937 74.1186 148.683 74.1186 148.175C74.1186 147.988 74.2015 147.838 74.3674 147.724C74.5332 147.6 74.7561 147.537 75.036 147.537Z" fill="url(#paint2_linear_5_5023)"/>
<path d="M80.967 30.8877C81.392 30.8877 81.6045 31.1261 81.6045 31.6029C81.6045 31.9968 81.3039 32.3908 80.7026 32.7847C79.5831 33.5207 78.6398 34.0027 77.8727 34.2307C76.4318 34.6557 74.9183 34.8682 73.3323 34.8682C71.7463 34.8682 70.2173 34.5884 68.7453 34.0286C67.2837 33.4585 66.0346 32.6655 64.998 31.6496C62.8315 29.5142 61.7482 26.7568 61.7482 23.3774C61.7482 21.7499 62.054 20.2572 62.6656 18.8993C63.2772 17.5309 64.122 16.3596 65.2001 15.3852C67.4807 13.3223 70.3469 12.2909 73.7988 12.2909C75.7373 12.2909 77.4425 12.6226 78.9145 13.286C80.4797 13.9806 81.2624 14.5714 81.2624 15.0586C81.2624 15.2556 81.195 15.4266 81.0603 15.5718C80.9359 15.7169 80.7907 15.7894 80.6249 15.7894C80.2932 15.7894 79.9925 15.6443 79.723 15.3541C79.4535 15.0534 79.0855 14.7839 78.619 14.5455C78.1629 14.3071 77.6602 14.0998 77.1108 13.9235C75.9912 13.5815 74.9702 13.4104 74.0476 13.4104C73.1354 13.4104 72.3786 13.4726 71.7774 13.597V33.531C72.503 33.6554 73.1457 33.7176 73.7055 33.7176C74.2653 33.7176 74.8354 33.6813 75.4159 33.6088C75.9964 33.5362 76.5665 33.417 77.1263 33.2511C78.3806 32.878 79.3239 32.3286 79.9563 31.6029C80.1843 31.3334 80.3657 31.1468 80.5005 31.0432C80.6352 30.9395 80.7907 30.8877 80.967 30.8877Z" fill="url(#paint3_linear_5_5023)"/>
<path d="M113.502 96.9032C113.305 96.8824 113.155 96.7943 113.051 96.6388C112.947 96.4833 112.906 96.3123 112.927 96.1257C112.979 95.8044 113.077 95.5089 113.222 95.2394C113.367 94.9699 113.471 94.7677 113.533 94.633C113.606 94.4982 113.678 94.3479 113.751 94.1821L114.342 92.8137L120.732 73.6727L127.605 86.9517L134.276 73.6727L142.252 96.6699H133.902L130.046 84.7904L124.075 97.2297L117.794 86.0343L115.617 92.8293C115.275 93.586 115.031 94.2287 114.886 94.7574C114.741 95.286 114.622 95.6955 114.528 95.9858C114.321 96.6388 113.979 96.9446 113.502 96.9032Z" fill="url(#paint4_linear_5_5023)"/>
<defs>
<linearGradient id="paint0_linear_5_5023" x1="69.0985" y1="31.3083" x2="69.0985" y2="138.784" gradientUnits="userSpaceOnUse">
<stop stop-color="#F38D3F"/>
<stop offset="0.481" stop-color="white"/>
<stop offset="1" stop-color="#8D5225"/>
</linearGradient>
<linearGradient id="paint1_linear_5_5023" x1="12.0758" y1="67.6699" x2="12.0758" y2="106.67" gradientUnits="userSpaceOnUse">
<stop stop-color="#F38D3F"/>
<stop offset="0.481" stop-color="white"/>
<stop offset="1" stop-color="#8D5225"/>
</linearGradient>
<linearGradient id="paint2_linear_5_5023" x1="74.0662" y1="124.99" x2="74.0662" y2="163.99" gradientUnits="userSpaceOnUse">
<stop stop-color="#F38D3F"/>
<stop offset="0.481" stop-color="white"/>
<stop offset="1" stop-color="#8D5225"/>
</linearGradient>
<linearGradient id="paint3_linear_5_5023" x1="72.0533" y1="5.57281" x2="72.0533" y2="44.5728" gradientUnits="userSpaceOnUse">
<stop stop-color="#F38D3F"/>
<stop offset="0.481" stop-color="white"/>
<stop offset="1" stop-color="#8D5225"/>
</linearGradient>
<linearGradient id="paint4_linear_5_5023" x1="128.005" y1="67.6699" x2="128.005" y2="106.67" gradientUnits="userSpaceOnUse">
<stop stop-color="#F38D3F"/>
<stop offset="0.481" stop-color="white"/>
<stop offset="1" stop-color="#8D5225"/>
</linearGradient>
</defs>
</svg>
